<svg xmlns="http://www.w3.org/2000/svg" width="620" height="380" font-family="sans-serif">
<rect width="620" height="380" fill="white"/>
<text x="310.0" y="22" font-size="16" font-weight="bold" text-anchor="middle">Plain decode (t/s) vs context</text>
<line x1="60" y1="335" x2="600" y2="335" stroke="#eee"/>
<text x="54" y="339" font-size="10" text-anchor="end" fill="#666">0</text>
<line x1="60" y1="276" x2="600" y2="276" stroke="#eee"/>
<text x="54" y="280" font-size="10" text-anchor="end" fill="#666">4</text>
<line x1="60" y1="217" x2="600" y2="217" stroke="#eee"/>
<text x="54" y="221" font-size="10" text-anchor="end" fill="#666">8</text>
<line x1="60" y1="158" x2="600" y2="158" stroke="#eee"/>
<text x="54" y="162" font-size="10" text-anchor="end" fill="#666">12</text>
<line x1="60" y1="99" x2="600" y2="99" stroke="#eee"/>
<text x="54" y="103" font-size="10" text-anchor="end" fill="#666">16</text>
<line x1="60" y1="40" x2="600" y2="40" stroke="#eee"/>
<text x="54" y="44" font-size="10" text-anchor="end" fill="#666">20</text>
<text x="60" y="350" font-size="10" text-anchor="middle" fill="#666">0k</text>
<text x="224" y="350" font-size="10" text-anchor="middle" fill="#666">20k</text>
<text x="387" y="350" font-size="10" text-anchor="middle" fill="#666">40k</text>
<text x="551" y="350" font-size="10" text-anchor="middle" fill="#666">60k</text>
<text x="310.0" y="374" font-size="11" text-anchor="middle" fill="#444">context size</text>
<polyline points="76.8,150.2 93.5,135.7 110.3,135.6 127.0,137.8" fill="none" stroke="#888" stroke-width="2.5"/>
<circle cx="76.8" cy="150.2" r="2.5" fill="#888"/>
<circle cx="93.5" cy="135.7" r="2.5" fill="#888"/>
<circle cx="110.3" cy="135.6" r="2.5" fill="#888"/>
<circle cx="127.0" cy="137.8" r="2.5" fill="#888"/>
<rect x="490" y="39" width="12" height="12" fill="#888"/><text x="506" y="49" font-size="11">main</text>
<polyline points="76.8,126.0 93.5,125.6 110.3,126.0 127.0,129.1 143.8,130.1 160.5,131.0 177.3,131.7 194.1,131.3 210.8,132.5 227.6,133.4 244.3,134.3 261.1,135.4 277.8,136.8 294.6,137.8 311.3,139.1 328.1,144.6 344.9,146.1 361.6,146.8 378.4,147.4 395.1,147.7 411.9,148.3 428.6,149.3 445.4,150.0 462.2,150.3 478.9,151.4 495.7,152.7 512.4,153.4 529.2,154.2 545.9,154.9 562.7,156.1 579.4,156.8 596.2,157.4" fill="none" stroke="#2c7fb8" stroke-width="2.5"/>
<circle cx="76.8" cy="126.0" r="2.5" fill="#2c7fb8"/>
<circle cx="93.5" cy="125.6" r="2.5" fill="#2c7fb8"/>
<circle cx="110.3" cy="126.0" r="2.5" fill="#2c7fb8"/>
<circle cx="127.0" cy="129.1" r="2.5" fill="#2c7fb8"/>
<circle cx="143.8" cy="130.1" r="2.5" fill="#2c7fb8"/>
<circle cx="160.5" cy="131.0" r="2.5" fill="#2c7fb8"/>
<circle cx="177.3" cy="131.7" r="2.5" fill="#2c7fb8"/>
<circle cx="194.1" cy="131.3" r="2.5" fill="#2c7fb8"/>
<circle cx="210.8" cy="132.5" r="2.5" fill="#2c7fb8"/>
<circle cx="227.6" cy="133.4" r="2.5" fill="#2c7fb8"/>
<circle cx="244.3" cy="134.3" r="2.5" fill="#2c7fb8"/>
<circle cx="261.1" cy="135.4" r="2.5" fill="#2c7fb8"/>
<circle cx="277.8" cy="136.8" r="2.5" fill="#2c7fb8"/>
<circle cx="294.6" cy="137.8" r="2.5" fill="#2c7fb8"/>
<circle cx="311.3" cy="139.1" r="2.5" fill="#2c7fb8"/>
<circle cx="328.1" cy="144.6" r="2.5" fill="#2c7fb8"/>
<circle cx="344.9" cy="146.1" r="2.5" fill="#2c7fb8"/>
<circle cx="361.6" cy="146.8" r="2.5" fill="#2c7fb8"/>
<circle cx="378.4" cy="147.4" r="2.5" fill="#2c7fb8"/>
<circle cx="395.1" cy="147.7" r="2.5" fill="#2c7fb8"/>
<circle cx="411.9" cy="148.3" r="2.5" fill="#2c7fb8"/>
<circle cx="428.6" cy="149.3" r="2.5" fill="#2c7fb8"/>
<circle cx="445.4" cy="150.0" r="2.5" fill="#2c7fb8"/>
<circle cx="462.2" cy="150.3" r="2.5" fill="#2c7fb8"/>
<circle cx="478.9" cy="151.4" r="2.5" fill="#2c7fb8"/>
<circle cx="495.7" cy="152.7" r="2.5" fill="#2c7fb8"/>
<circle cx="512.4" cy="153.4" r="2.5" fill="#2c7fb8"/>
<circle cx="529.2" cy="154.2" r="2.5" fill="#2c7fb8"/>
<circle cx="545.9" cy="154.9" r="2.5" fill="#2c7fb8"/>
<circle cx="562.7" cy="156.1" r="2.5" fill="#2c7fb8"/>
<circle cx="579.4" cy="156.8" r="2.5" fill="#2c7fb8"/>
<circle cx="596.2" cy="157.4" r="2.5" fill="#2c7fb8"/>
<rect x="490" y="57" width="12" height="12" fill="#2c7fb8"/><text x="506" y="67" font-size="11">PR3</text>
<polyline points="76.8,123.2 93.5,122.6 110.3,123.6 127.0,126.3 143.8,127.6 160.5,128.6 177.3,129.4 194.1,129.2 210.8,130.4 227.6,131.3 244.3,132.3 261.1,133.4 277.8,134.8 294.6,135.9 311.3,137.2 328.1,142.8 344.9,144.3 361.6,145.0 378.4,145.6 395.1,145.9 411.9,146.6 428.6,147.5 445.4,148.3 462.2,148.7 478.9,149.7 495.7,151.1 512.4,152.0 529.2,152.7 545.9,153.4 562.7,154.5 579.4,155.3 596.2,155.9" fill="none" stroke="#c0392b" stroke-width="2.5"/>
<circle cx="76.8" cy="123.2" r="2.5" fill="#c0392b"/>
<circle cx="93.5" cy="122.6" r="2.5" fill="#c0392b"/>
<circle cx="110.3" cy="123.6" r="2.5" fill="#c0392b"/>
<circle cx="127.0" cy="126.3" r="2.5" fill="#c0392b"/>
<circle cx="143.8" cy="127.6" r="2.5" fill="#c0392b"/>
<circle cx="160.5" cy="128.6" r="2.5" fill="#c0392b"/>
<circle cx="177.3" cy="129.4" r="2.5" fill="#c0392b"/>
<circle cx="194.1" cy="129.2" r="2.5" fill="#c0392b"/>
<circle cx="210.8" cy="130.4" r="2.5" fill="#c0392b"/>
<circle cx="227.6" cy="131.3" r="2.5" fill="#c0392b"/>
<circle cx="244.3" cy="132.3" r="2.5" fill="#c0392b"/>
<circle cx="261.1" cy="133.4" r="2.5" fill="#c0392b"/>
<circle cx="277.8" cy="134.8" r="2.5" fill="#c0392b"/>
<circle cx="294.6" cy="135.9" r="2.5" fill="#c0392b"/>
<circle cx="311.3" cy="137.2" r="2.5" fill="#c0392b"/>
<circle cx="328.1" cy="142.8" r="2.5" fill="#c0392b"/>
<circle cx="344.9" cy="144.3" r="2.5" fill="#c0392b"/>
<circle cx="361.6" cy="145.0" r="2.5" fill="#c0392b"/>
<circle cx="378.4" cy="145.6" r="2.5" fill="#c0392b"/>
<circle cx="395.1" cy="145.9" r="2.5" fill="#c0392b"/>
<circle cx="411.9" cy="146.6" r="2.5" fill="#c0392b"/>
<circle cx="428.6" cy="147.5" r="2.5" fill="#c0392b"/>
<circle cx="445.4" cy="148.3" r="2.5" fill="#c0392b"/>
<circle cx="462.2" cy="148.7" r="2.5" fill="#c0392b"/>
<circle cx="478.9" cy="149.7" r="2.5" fill="#c0392b"/>
<circle cx="495.7" cy="151.1" r="2.5" fill="#c0392b"/>
<circle cx="512.4" cy="152.0" r="2.5" fill="#c0392b"/>
<circle cx="529.2" cy="152.7" r="2.5" fill="#c0392b"/>
<circle cx="545.9" cy="153.4" r="2.5" fill="#c0392b"/>
<circle cx="562.7" cy="154.5" r="2.5" fill="#c0392b"/>
<circle cx="579.4" cy="155.3" r="2.5" fill="#c0392b"/>
<circle cx="596.2" cy="155.9" r="2.5" fill="#c0392b"/>
<rect x="490" y="75" width="12" height="12" fill="#c0392b"/><text x="506" y="85" font-size="11">current</text>
</svg>