<?xml version="1.0" encoding="UTF-8"?>
<svg xmlns="http://www.w3.org/2000/svg" width="960" height="540" viewBox="0 0 960 540">
<style>
text { font-family: -apple-system, BlinkMacSystemFont, 'Segoe UI', sans-serif; }
.title { font-size: 26px; font-weight: 700; fill: #1f2933; }
.axis-label { font-size: 14px; font-weight: 600; fill: #334155; }
.tick { font-size: 12px; fill: #64748b; }
.legend { font-size: 13px; font-weight: 600; fill: #1f2933; }
</style>
<rect width="960" height="540" fill="#ffffff"/>
<text class="title" x="480.0" y="34" text-anchor="middle">GB10 MTP t/s</text>
<line x1="82" y1="468.00" x2="878" y2="468.00" stroke="#e2e8f0" stroke-width="1"/>
<text class="tick" x="70" y="472.00" text-anchor="end">0</text>
<line x1="82" y1="387.60" x2="878" y2="387.60" stroke="#e2e8f0" stroke-width="1"/>
<text class="tick" x="70" y="391.60" text-anchor="end">100</text>
<line x1="82" y1="307.20" x2="878" y2="307.20" stroke="#e2e8f0" stroke-width="1"/>
<text class="tick" x="70" y="311.20" text-anchor="end">200</text>
<line x1="82" y1="226.80" x2="878" y2="226.80" stroke="#e2e8f0" stroke-width="1"/>
<text class="tick" x="70" y="230.80" text-anchor="end">300</text>
<line x1="82" y1="146.40" x2="878" y2="146.40" stroke="#e2e8f0" stroke-width="1"/>
<text class="tick" x="70" y="150.40" text-anchor="end">400</text>
<line x1="82" y1="66.00" x2="878" y2="66.00" stroke="#e2e8f0" stroke-width="1"/>
<text class="tick" x="70" y="70.00" text-anchor="end">500</text>
<text class="tick" x="890" y="472.00" text-anchor="start">0</text>
<text class="tick" x="890" y="391.60" text-anchor="start">5</text>
<text class="tick" x="890" y="311.20" text-anchor="start">10</text>
<text class="tick" x="890" y="230.80" text-anchor="start">15</text>
<text class="tick" x="890" y="150.40" text-anchor="start">20</text>
<text class="tick" x="890" y="70.00" text-anchor="start">25</text>
<line x1="82.00" y1="66" x2="82.00" y2="468" stroke="#e2e8f0" stroke-width="1"/>
<text class="tick" x="82.00" y="492" text-anchor="middle">0</text>
<line x1="324.92" y1="66" x2="324.92" y2="468" stroke="#e2e8f0" stroke-width="1"/>
<text class="tick" x="324.92" y="492" text-anchor="middle">20k</text>
<line x1="567.84" y1="66" x2="567.84" y2="468" stroke="#e2e8f0" stroke-width="1"/>
<text class="tick" x="567.84" y="492" text-anchor="middle">40k</text>
<line x1="810.76" y1="66" x2="810.76" y2="468" stroke="#e2e8f0" stroke-width="1"/>
<text class="tick" x="810.76" y="492" text-anchor="middle">60k</text>
<line x1="82" y1="66" x2="82" y2="468" stroke="#334155" stroke-width="1.4"/>
<line x1="878" y1="66" x2="878" y2="468" stroke="#334155" stroke-width="1.4"/>
<line x1="82" y1="468" x2="878" y2="468" stroke="#334155" stroke-width="1.4"/>
<text class="axis-label" x="480.0" y="520" text-anchor="middle">ctx size</text>
<text class="axis-label" x="22" y="267.0" text-anchor="middle" transform="rotate(-90 22 267.0)">prefill t/s</text>
<text class="axis-label" x="938" y="267.0" text-anchor="middle" transform="rotate(90 938 267.0)">generation t/s</text>
<polyline fill="none" stroke="#2563eb" stroke-width="3" stroke-linecap="round" stroke-linejoin="round" points="106.88,138.57 131.75,150.50 156.62,159.52 181.50,163.00 206.38,169.30 231.25,178.66 256.12,175.12 281.00,170.46 305.88,171.73 330.75,174.34 355.62,179.52 380.50,186.01 405.38,192.36 430.25,194.83 455.12,189.93 480.00,189.64 504.88,199.65 529.75,201.26 554.62,202.55 579.50,206.68 604.38,211.88 629.25,216.92 654.12,220.51 679.00,222.45 703.88,226.62 728.75,221.65 753.62,220.63 778.50,221.43 803.38,224.11 828.25,227.39 853.12,232.29 878.00,235.77"/>
<polyline fill="none" stroke="#dc2626" stroke-width="3" stroke-linecap="round" stroke-linejoin="round" points="106.88,198.34 131.75,231.14 156.62,157.33 181.50,229.53 206.38,191.42 231.25,225.19 256.12,195.93 281.00,225.51 305.88,211.68 330.75,175.67 355.62,222.30 380.50,223.91 405.38,218.12 430.25,212.33 455.12,217.31 480.00,219.89 504.88,228.09 529.75,248.51 554.62,251.56 579.50,229.05 604.38,259.28 629.25,256.55 654.12,252.69 679.00,253.01 703.88,262.18 728.75,262.18 753.62,258.64 778.50,244.49 803.38,257.03 828.25,268.93 853.12,263.30 878.00,260.73"/>
<rect x="694" y="66" width="176" height="62" rx="6" fill="#ffffff" stroke="#cbd5e1"/>
<rect x="708" y="78" width="12" height="12" fill="#2563eb"/>
<text class="legend" x="730" y="89">prefill</text>
<rect x="708" y="104" width="12" height="12" fill="#dc2626"/>
<text class="legend" x="730" y="115">generation</text>
</svg>
